<?xml version="1.0" encoding="utf-8"?>
<!-- Generator: Adobe Illustrator 24.3.0, SVG Export Plug-In . SVG Version: 6.00 Build 0)  -->
<svg version="1.1" id="Layer_1" xmlns="http://www.w3.org/2000/svg" xmlns:xlink="http://www.w3.org/1999/xlink" x="0px" y="0px"
	 viewBox="0 0 841.89 339.68" style="enable-background:new 0 0 841.89 339.68;" xml:space="preserve">
<style type="text/css">
	.st0{fill:#E23D2B;}
	.st1{fill:#3779B2;}
	.st2{fill:#269245;}
	.st3{fill:#ECB511;}
	.st4{fill:url(#SVGID_1_);}
	.st5{fill:url(#SVGID_2_);}
	.st6{fill:url(#SVGID_3_);}
	.st7{fill:url(#SVGID_4_);}
	.st8{fill:#FFFFFF;}
</style>
<g>
	<g>
		<path class="st2" d="M201.2,273.17l-2.78-11.4v12.35c0,0.68-0.15,1.2-0.44,1.54c-0.3,0.34-0.69,0.51-1.18,0.51
			c-0.47,0-0.86-0.17-1.16-0.51c-0.3-0.34-0.45-0.85-0.45-1.54v-14.16c0-0.78,0.2-1.31,0.59-1.58s0.93-0.41,1.6-0.41h1.09
			c0.66,0,1.13,0.06,1.43,0.18c0.3,0.12,0.52,0.34,0.66,0.66c0.14,0.32,0.3,0.83,0.49,1.55l2.52,9.8l2.52-9.8
			c0.18-0.72,0.34-1.23,0.49-1.55c0.14-0.32,0.36-0.54,0.66-0.66c0.3-0.12,0.77-0.18,1.43-0.18h1.09c0.67,0,1.2,0.14,1.6,0.41
			c0.39,0.27,0.59,0.8,0.59,1.58v14.16c0,0.68-0.15,1.2-0.44,1.54s-0.69,0.51-1.19,0.51c-0.47,0-0.85-0.17-1.15-0.51
			c-0.3-0.34-0.45-0.86-0.45-1.54v-12.35l-2.78,11.4c-0.18,0.74-0.33,1.28-0.44,1.63c-0.11,0.35-0.33,0.66-0.63,0.95
			c-0.31,0.29-0.73,0.43-1.28,0.43c-0.41,0-0.76-0.09-1.04-0.27c-0.28-0.18-0.51-0.42-0.66-0.7c-0.16-0.28-0.28-0.6-0.37-0.95
			C201.39,273.9,201.3,273.54,201.2,273.17z"/>
		<path class="st2" d="M220.42,268.47v-8.61c0-0.73,0.16-1.28,0.48-1.65c0.32-0.37,0.74-0.55,1.26-0.55c0.54,0,0.98,0.18,1.3,0.55
			c0.32,0.37,0.48,0.92,0.48,1.65v8.8c0,1,0.11,1.84,0.33,2.51c0.22,0.67,0.6,1.19,1.15,1.56c0.55,0.37,1.33,0.55,2.32,0.55
			c1.37,0,2.34-0.38,2.91-1.13c0.57-0.75,0.85-1.89,0.85-3.42v-8.88c0-0.74,0.16-1.29,0.47-1.65c0.32-0.36,0.74-0.54,1.27-0.54
			s0.96,0.18,1.28,0.54s0.49,0.91,0.49,1.65v8.61c0,1.4-0.13,2.57-0.4,3.5c-0.26,0.94-0.76,1.76-1.5,2.47
			c-0.63,0.6-1.37,1.04-2.2,1.32c-0.84,0.28-1.82,0.41-2.94,0.41c-1.33,0-2.48-0.15-3.45-0.45c-0.96-0.3-1.75-0.76-2.36-1.38
			c-0.61-0.62-1.05-1.42-1.34-2.39S220.42,269.82,220.42,268.47z"/>
		<path class="st2" d="M256.86,270.49c0,1.08-0.27,2.05-0.81,2.92c-0.54,0.86-1.33,1.54-2.37,2.03s-2.28,0.73-3.71,0.73
			c-1.71,0-3.13-0.33-4.24-1c-0.79-0.48-1.43-1.12-1.92-1.92c-0.49-0.8-0.74-1.58-0.74-2.34c0-0.44,0.15-0.82,0.44-1.13
			c0.3-0.31,0.67-0.47,1.13-0.47c0.37,0,0.69,0.12,0.94,0.37c0.26,0.24,0.48,0.61,0.66,1.09c0.22,0.57,0.46,1.05,0.72,1.43
			c0.26,0.38,0.62,0.7,1.08,0.95c0.47,0.25,1.08,0.37,1.84,0.37c1.04,0,1.89-0.25,2.54-0.75c0.65-0.5,0.98-1.12,0.98-1.87
			c0-0.59-0.18-1.08-0.53-1.45s-0.81-0.65-1.36-0.85c-0.56-0.2-1.3-0.4-2.23-0.62c-1.25-0.3-2.29-0.65-3.13-1.06
			c-0.84-0.4-1.51-0.95-2-1.65c-0.49-0.7-0.74-1.56-0.74-2.59c0-0.99,0.26-1.86,0.78-2.62s1.27-1.35,2.26-1.76s2.15-0.62,3.48-0.62
			c1.07,0,1.99,0.14,2.76,0.41c0.78,0.27,1.42,0.63,1.94,1.09c0.51,0.45,0.89,0.93,1.12,1.42s0.35,0.98,0.35,1.45
			c0,0.43-0.15,0.82-0.44,1.17c-0.3,0.35-0.67,0.52-1.11,0.52c-0.4,0-0.71-0.1-0.92-0.31c-0.21-0.21-0.44-0.55-0.68-1.02
			c-0.32-0.68-0.69-1.2-1.14-1.58c-0.44-0.38-1.15-0.57-2.13-0.57c-0.91,0-1.64,0.21-2.2,0.62c-0.56,0.41-0.83,0.91-0.83,1.48
			c0,0.36,0.09,0.67,0.28,0.93s0.45,0.48,0.78,0.67c0.33,0.19,0.67,0.33,1.01,0.44c0.34,0.11,0.9,0.26,1.68,0.46
			c0.98,0.24,1.87,0.5,2.66,0.78c0.79,0.29,1.47,0.63,2.02,1.04s0.99,0.92,1.3,1.54C256.7,268.83,256.86,269.59,256.86,270.49z"/>
		<path class="st2" d="M264.83,273.96v-14.1c0-0.73,0.16-1.28,0.49-1.65s0.74-0.55,1.26-0.55c0.53,0,0.96,0.18,1.28,0.54
			s0.49,0.91,0.49,1.65v14.1c0,0.74-0.16,1.29-0.49,1.66s-0.76,0.55-1.28,0.55c-0.51,0-0.92-0.18-1.25-0.55
			S264.83,274.69,264.83,273.96z"/>
		<path class="st2" d="M291.92,270.21c0,0.57-0.14,1.19-0.41,1.85c-0.27,0.66-0.7,1.31-1.29,1.95c-0.58,0.64-1.33,1.16-2.24,1.56
			s-1.97,0.6-3.17,0.6c-0.92,0-1.75-0.09-2.5-0.27c-0.75-0.18-1.43-0.46-2.04-0.84c-0.61-0.38-1.17-0.88-1.69-1.5
			c-0.46-0.56-0.85-1.19-1.17-1.89c-0.32-0.7-0.57-1.44-0.73-2.23c-0.16-0.79-0.24-1.63-0.24-2.52c0-1.44,0.2-2.73,0.61-3.87
			c0.41-1.14,0.99-2.11,1.75-2.92c0.76-0.81,1.65-1.43,2.66-1.85c1.02-0.42,2.1-0.63,3.26-0.63c1.41,0,2.66,0.29,3.75,0.87
			c1.1,0.58,1.94,1.29,2.52,2.14c0.58,0.85,0.88,1.65,0.88,2.41c0,0.42-0.14,0.78-0.43,1.1c-0.28,0.32-0.63,0.48-1.03,0.48
			c-0.45,0-0.79-0.11-1.01-0.33c-0.23-0.22-0.48-0.6-0.75-1.14c-0.46-0.89-1-1.55-1.62-1.99s-1.38-0.66-2.29-0.66
			c-1.44,0-2.6,0.57-3.45,1.7s-1.28,2.74-1.28,4.82c0,1.39,0.19,2.55,0.57,3.47s0.92,1.61,1.61,2.07c0.69,0.46,1.51,0.68,2.44,0.68
			c1.01,0,1.87-0.26,2.56-0.77c0.7-0.52,1.23-1.28,1.58-2.28c0.15-0.47,0.34-0.86,0.56-1.15c0.22-0.3,0.58-0.45,1.07-0.45
			c0.42,0,0.78,0.15,1.08,0.45C291.77,269.39,291.92,269.76,291.92,270.21z"/>
		<path class="st2" d="M312.76,276.17c-0.49,0-0.91-0.16-1.27-0.49c-0.36-0.33-0.53-0.78-0.53-1.37c0-0.5,0.17-0.92,0.51-1.28
			s0.76-0.54,1.26-0.54c0.5,0,0.92,0.18,1.27,0.53c0.35,0.35,0.53,0.78,0.53,1.29c0,0.58-0.18,1.03-0.53,1.36
			C313.65,276,313.24,276.17,312.76,276.17z"/>
		<path class="st1" d="M345.47,260.96h-3.84v13c0,0.75-0.16,1.3-0.49,1.67c-0.32,0.36-0.74,0.54-1.26,0.54
			c-0.52,0-0.95-0.18-1.27-0.55s-0.49-0.92-0.49-1.66v-13h-3.84c-0.6,0-1.05-0.14-1.34-0.41c-0.29-0.27-0.44-0.63-0.44-1.08
			c0-0.46,0.15-0.83,0.46-1.1c0.3-0.27,0.74-0.4,1.32-0.4h11.18c0.61,0,1.06,0.14,1.36,0.42c0.3,0.28,0.44,0.64,0.44,1.09
			c0,0.45-0.15,0.81-0.45,1.08C346.52,260.82,346.07,260.96,345.47,260.96z"/>
		<path class="st1" d="M354.35,273.96v-14.1c0-0.73,0.16-1.28,0.49-1.65s0.74-0.55,1.26-0.55c0.53,0,0.96,0.18,1.28,0.54
			s0.49,0.91,0.49,1.65v14.1c0,0.74-0.16,1.29-0.49,1.66s-0.76,0.55-1.28,0.55c-0.51,0-0.92-0.18-1.25-0.55
			S354.35,274.69,354.35,273.96z"/>
		<path class="st1" d="M381.43,270.21c0,0.57-0.14,1.19-0.41,1.85c-0.27,0.66-0.7,1.31-1.29,1.95c-0.58,0.64-1.33,1.16-2.24,1.56
			s-1.97,0.6-3.17,0.6c-0.92,0-1.75-0.09-2.5-0.27c-0.75-0.18-1.43-0.46-2.04-0.84c-0.61-0.38-1.17-0.88-1.69-1.5
			c-0.46-0.56-0.85-1.19-1.17-1.89c-0.32-0.7-0.57-1.44-0.73-2.23c-0.16-0.79-0.24-1.63-0.24-2.52c0-1.44,0.2-2.73,0.61-3.87
			c0.41-1.14,0.99-2.11,1.75-2.92c0.76-0.81,1.65-1.43,2.66-1.85c1.02-0.42,2.1-0.63,3.26-0.63c1.41,0,2.66,0.29,3.75,0.87
			c1.1,0.58,1.94,1.29,2.52,2.14c0.58,0.85,0.88,1.65,0.88,2.41c0,0.42-0.14,0.78-0.43,1.1c-0.28,0.32-0.63,0.48-1.03,0.48
			c-0.45,0-0.79-0.11-1.01-0.33c-0.23-0.22-0.48-0.6-0.75-1.14c-0.46-0.89-1-1.55-1.62-1.99s-1.38-0.66-2.29-0.66
			c-1.44,0-2.6,0.57-3.45,1.7s-1.28,2.74-1.28,4.82c0,1.39,0.19,2.55,0.57,3.47s0.92,1.61,1.61,2.07c0.69,0.46,1.51,0.68,2.44,0.68
			c1.01,0,1.87-0.26,2.56-0.77c0.7-0.52,1.23-1.28,1.58-2.28c0.15-0.47,0.34-0.86,0.56-1.15c0.22-0.3,0.58-0.45,1.07-0.45
			c0.42,0,0.78,0.15,1.08,0.45C381.28,269.39,381.43,269.76,381.43,270.21z"/>
		<path class="st1" d="M392.99,259.86v6.28l6.9-7.42c0.33-0.36,0.61-0.62,0.85-0.79s0.54-0.26,0.93-0.26c0.5,0,0.91,0.15,1.23,0.46
			c0.31,0.31,0.47,0.68,0.47,1.12c0,0.53-0.26,1.05-0.79,1.58l-4.27,4.17l4.93,7.28c0.35,0.5,0.61,0.95,0.78,1.33
			c0.17,0.38,0.26,0.75,0.26,1.1c0,0.4-0.15,0.74-0.46,1.04s-0.72,0.44-1.24,0.44c-0.49,0-0.89-0.11-1.2-0.32
			c-0.31-0.21-0.57-0.5-0.78-0.86c-0.21-0.36-0.4-0.68-0.57-0.98l-4.16-6.59l-2.88,2.84v3.7c0,0.75-0.17,1.3-0.5,1.67
			c-0.33,0.36-0.76,0.54-1.28,0.54c-0.3,0-0.59-0.08-0.86-0.24c-0.28-0.16-0.49-0.38-0.64-0.66c-0.11-0.23-0.18-0.49-0.2-0.79
			c-0.02-0.3-0.04-0.74-0.04-1.31v-13.31c0-0.73,0.16-1.28,0.47-1.65c0.31-0.37,0.74-0.55,1.27-0.55c0.53,0,0.96,0.18,1.28,0.54
			S392.99,259.12,392.99,259.86z"/>
		<path class="st1" d="M423.68,260.76h-7.92v4.39h7.29c0.54,0,0.94,0.12,1.2,0.37c0.26,0.25,0.4,0.58,0.4,0.98s-0.13,0.74-0.39,1
			c-0.26,0.26-0.66,0.38-1.21,0.38h-7.29v5.09h8.19c0.55,0,0.97,0.13,1.25,0.4c0.28,0.26,0.42,0.62,0.42,1.06
			c0,0.42-0.14,0.77-0.42,1.03c-0.28,0.26-0.7,0.4-1.25,0.4h-9.56c-0.77,0-1.32-0.17-1.65-0.53c-0.34-0.35-0.5-0.92-0.5-1.7v-13.45
			c0-0.52,0.07-0.95,0.23-1.28c0.15-0.33,0.38-0.57,0.7-0.72c0.32-0.15,0.73-0.23,1.23-0.23h9.28c0.56,0,0.98,0.13,1.25,0.38
			c0.27,0.26,0.41,0.59,0.41,1.01c0,0.42-0.14,0.76-0.41,1.02C424.66,260.64,424.24,260.76,423.68,260.76z"/>
		<path class="st1" d="M444.54,260.96h-3.84v13c0,0.75-0.16,1.3-0.49,1.67c-0.32,0.36-0.74,0.54-1.26,0.54
			c-0.52,0-0.95-0.18-1.27-0.55c-0.33-0.37-0.49-0.92-0.49-1.66v-13h-3.84c-0.6,0-1.05-0.14-1.34-0.41s-0.44-0.63-0.44-1.08
			c0-0.46,0.15-0.83,0.46-1.1c0.3-0.27,0.74-0.4,1.32-0.4h11.18c0.61,0,1.06,0.14,1.36,0.42c0.3,0.28,0.44,0.64,0.44,1.09
			c0,0.45-0.15,0.81-0.45,1.08C445.59,260.82,445.14,260.96,444.54,260.96z"/>
		<path class="st1" d="M466.47,270.49c0,1.08-0.27,2.05-0.81,2.92c-0.54,0.86-1.33,1.54-2.37,2.03s-2.28,0.73-3.71,0.73
			c-1.71,0-3.13-0.33-4.24-1c-0.79-0.48-1.43-1.12-1.92-1.92c-0.49-0.8-0.74-1.58-0.74-2.34c0-0.44,0.15-0.82,0.44-1.13
			c0.3-0.31,0.67-0.47,1.13-0.47c0.37,0,0.69,0.12,0.94,0.37c0.26,0.24,0.48,0.61,0.66,1.09c0.22,0.57,0.46,1.05,0.72,1.43
			c0.26,0.38,0.62,0.7,1.08,0.95c0.47,0.25,1.08,0.37,1.84,0.37c1.04,0,1.89-0.25,2.54-0.75c0.65-0.5,0.98-1.12,0.98-1.87
			c0-0.59-0.18-1.08-0.53-1.45c-0.35-0.37-0.8-0.65-1.36-0.85s-1.3-0.4-2.23-0.62c-1.25-0.3-2.29-0.65-3.13-1.06
			c-0.84-0.4-1.51-0.95-2-1.65c-0.49-0.7-0.74-1.56-0.74-2.59c0-0.99,0.26-1.86,0.78-2.62c0.52-0.76,1.27-1.35,2.26-1.76
			c0.99-0.41,2.15-0.62,3.48-0.62c1.07,0,1.99,0.14,2.76,0.41c0.78,0.27,1.42,0.63,1.94,1.09c0.51,0.45,0.89,0.93,1.12,1.42
			c0.24,0.5,0.35,0.98,0.35,1.45c0,0.43-0.15,0.82-0.44,1.17c-0.3,0.35-0.67,0.52-1.11,0.52c-0.4,0-0.71-0.1-0.92-0.31
			c-0.21-0.21-0.44-0.55-0.68-1.02c-0.32-0.68-0.69-1.2-1.14-1.58c-0.44-0.38-1.15-0.57-2.13-0.57c-0.91,0-1.64,0.21-2.2,0.62
			c-0.56,0.41-0.83,0.91-0.83,1.48c0,0.36,0.09,0.67,0.28,0.93s0.45,0.48,0.78,0.67c0.33,0.19,0.67,0.33,1.01,0.44
			c0.34,0.11,0.9,0.26,1.68,0.46c0.98,0.24,1.87,0.5,2.66,0.78c0.79,0.29,1.47,0.63,2.03,1.04s0.99,0.92,1.3,1.54
			C466.31,268.83,466.47,269.59,466.47,270.49z"/>
		<path d="M487.13,276.17c-0.49,0-0.91-0.16-1.27-0.49c-0.36-0.33-0.53-0.78-0.53-1.37c0-0.5,0.17-0.92,0.51-1.28
			c0.34-0.36,0.76-0.54,1.26-0.54c0.5,0,0.92,0.18,1.27,0.53c0.35,0.35,0.53,0.78,0.53,1.29c0,0.58-0.18,1.03-0.53,1.36
			C488.02,276,487.6,276.17,487.13,276.17z"/>
		<g>
			<g>
				<linearGradient id="SVGID_1_" gradientUnits="userSpaceOnUse" x1="508.4113" y1="266.9157" x2="614.0607" y2="266.9157">
					<stop  offset="1.331947e-07" style="stop-color:#ECB511"/>
					<stop  offset="1" style="stop-color:#E23D2B"/>
				</linearGradient>
				<path class="st4" d="M524.56,258.38c-0.4-0.27-0.93-0.41-1.6-0.41h-1.09c-0.66,0-1.13,0.06-1.43,0.18
					c-0.3,0.12-0.51,0.34-0.66,0.66c-0.14,0.32-0.3,0.83-0.49,1.55l-2.52,9.8l-2.52-9.8c-0.18-0.72-0.34-1.23-0.49-1.55
					c-0.14-0.32-0.36-0.54-0.66-0.66c-0.3-0.12-0.77-0.18-1.43-0.18h-1.09c-0.67,0-1.2,0.14-1.6,0.41s-0.59,0.8-0.59,1.58v14.16
					c0,0.69,0.15,1.21,0.45,1.54c0.3,0.34,0.69,0.51,1.16,0.51c0.49,0,0.88-0.17,1.18-0.51c0.3-0.34,0.44-0.86,0.44-1.54v-12.35
					l2.78,11.4c0.09,0.37,0.19,0.73,0.28,1.08c0.09,0.35,0.21,0.66,0.37,0.95c0.16,0.29,0.38,0.52,0.66,0.7
					c0.28,0.18,0.63,0.27,1.04,0.27c0.54,0,0.97-0.14,1.28-0.43s0.52-0.6,0.63-0.95c0.11-0.35,0.26-0.89,0.44-1.63l2.78-11.4v12.35
					c0,0.68,0.15,1.2,0.45,1.54c0.3,0.34,0.68,0.51,1.15,0.51c0.5,0,0.89-0.17,1.19-0.51s0.44-0.86,0.44-1.54v-14.16
					C525.15,259.18,524.96,258.65,524.56,258.38z M545.33,272.98h-8.19v-5.09h7.29c0.54,0,0.95-0.13,1.21-0.38
					c0.26-0.26,0.39-0.59,0.39-1s-0.13-0.73-0.4-0.98c-0.26-0.25-0.67-0.37-1.2-0.37h-7.29v-4.39h7.92c0.56,0,0.98-0.13,1.25-0.38
					c0.27-0.26,0.41-0.6,0.41-1.02c0-0.42-0.14-0.75-0.41-1.01c-0.27-0.26-0.69-0.38-1.25-0.38h-9.28c-0.5,0-0.91,0.08-1.23,0.23
					c-0.32,0.15-0.55,0.39-0.71,0.72c-0.15,0.33-0.22,0.75-0.22,1.28v13.45c0,0.78,0.17,1.35,0.5,1.7c0.34,0.35,0.89,0.53,1.65,0.53
					h9.55c0.55,0,0.97-0.13,1.25-0.4c0.28-0.26,0.42-0.61,0.42-1.03c0-0.44-0.14-0.79-0.42-1.06
					C546.3,273.12,545.88,272.98,545.33,272.98z M567.65,271.43c-0.45-0.75-0.95-1.46-1.52-2.13s-1.16-1.17-1.79-1.51
					c1.48-0.33,2.59-0.9,3.32-1.7c0.73-0.8,1.1-1.86,1.1-3.2c0-0.65-0.11-1.27-0.33-1.85c-0.22-0.58-0.54-1.09-0.95-1.53
					c-0.42-0.44-0.9-0.78-1.45-1.01c-0.45-0.21-0.96-0.35-1.52-0.42c-0.56-0.07-1.24-0.1-2.02-0.1h-5.72
					c-0.76,0-1.31,0.17-1.65,0.52c-0.34,0.35-0.51,0.92-0.51,1.7v13.77c0,0.72,0.15,1.27,0.46,1.65c0.31,0.37,0.74,0.56,1.3,0.56
					c0.52,0,0.94-0.18,1.27-0.54c0.32-0.36,0.49-0.92,0.49-1.67v-5.75h1.23c0.62,0,1.14,0.09,1.55,0.26s0.82,0.49,1.21,0.95
					s0.85,1.14,1.36,2.03l1.41,2.42c0.33,0.57,0.59,1,0.79,1.29c0.19,0.29,0.42,0.54,0.69,0.73c0.27,0.19,0.6,0.29,0.99,0.29
					c0.33,0,0.62-0.07,0.88-0.2c0.25-0.13,0.45-0.32,0.6-0.55c0.15-0.23,0.22-0.47,0.22-0.7c0-0.23-0.12-0.64-0.37-1.25
					C568.44,272.86,568.09,272.18,567.65,271.43z M563.42,265.38c-0.58,0.15-1.29,0.23-2.13,0.23h-3.15v-4.92h3.24
					c1.21,0,2.02,0.09,2.43,0.27c0.43,0.19,0.77,0.47,1.02,0.85c0.24,0.38,0.37,0.82,0.37,1.31c0,0.63-0.15,1.13-0.46,1.5
					C564.43,264.98,563.99,265.23,563.42,265.38z M613.57,258.21c-0.33-0.36-0.76-0.54-1.28-0.54c-0.52,0-0.94,0.18-1.26,0.55
					c-0.32,0.37-0.48,0.92-0.48,1.65v5.13h-7.59v-5.13c0-0.74-0.16-1.29-0.49-1.65c-0.33-0.36-0.76-0.54-1.28-0.54
					c-0.54,0-0.96,0.18-1.27,0.55s-0.47,0.92-0.47,1.65v14.1c0,0.73,0.16,1.28,0.47,1.65s0.74,0.55,1.27,0.55
					c0.52,0,0.95-0.18,1.28-0.55c0.33-0.37,0.5-0.92,0.5-1.66v-6.02h7.59v6.02c0,0.73,0.16,1.28,0.47,1.65
					c0.32,0.37,0.74,0.55,1.27,0.55c0.52,0,0.95-0.18,1.28-0.55c0.33-0.37,0.5-0.92,0.5-1.66v-14.1
					C614.06,259.12,613.9,258.57,613.57,258.21z M589.87,268.64c-0.49,0-0.84,0.15-1.07,0.45c-0.22,0.3-0.41,0.68-0.56,1.15
					c-0.36,1-0.88,1.76-1.58,2.28c-0.7,0.52-1.55,0.77-2.56,0.77c-0.93,0-1.74-0.23-2.44-0.68c-0.69-0.46-1.23-1.14-1.61-2.07
					s-0.57-2.08-0.57-3.47c0-2.08,0.43-3.69,1.29-4.82s2.01-1.7,3.45-1.7c0.91,0,1.67,0.22,2.29,0.66c0.62,0.44,1.16,1.1,1.62,1.99
					c0.28,0.54,0.53,0.92,0.75,1.14c0.22,0.22,0.56,0.33,1.01,0.33c0.4,0,0.75-0.16,1.03-0.48c0.28-0.32,0.43-0.68,0.43-1.1
					c0-0.76-0.29-1.56-0.88-2.41s-1.42-1.56-2.52-2.14c-1.1-0.58-2.35-0.87-3.75-0.87c-1.15,0-2.24,0.21-3.26,0.63
					c-1.02,0.42-1.91,1.04-2.66,1.85c-0.76,0.81-1.34,1.78-1.75,2.92s-0.61,2.43-0.61,3.87c0,0.89,0.08,1.73,0.24,2.52
					c0.16,0.79,0.4,1.53,0.73,2.23c0.32,0.7,0.71,1.32,1.17,1.89c0.51,0.62,1.08,1.12,1.69,1.5c0.61,0.38,1.29,0.66,2.04,0.84
					c0.75,0.18,1.58,0.27,2.5,0.27c1.21,0,2.27-0.2,3.17-0.6c0.91-0.4,1.65-0.92,2.24-1.56c0.58-0.64,1.01-1.29,1.29-1.95
					c0.27-0.66,0.41-1.28,0.41-1.85c0-0.45-0.15-0.82-0.45-1.12C590.65,268.79,590.29,268.64,589.87,268.64z"/>
			</g>
		</g>
	</g>
	<g>
		<path class="st2" d="M125.97,150.96c0-27.23,23.57-49.23,51.31-46.59c24.3,2.31,42.3,23.8,42.3,48.21v38.39
			c0,11.17,9.05,20.22,20.22,20.22h0c11.17,0,20.22-9.05,20.22-20.22v-37.7c0-47.34-36.74-87.8-84.05-89.5
			c-49.56-1.78-90.45,38.02-90.45,87.19v40.01c0,11.17,9.05,20.22,20.22,20.22h0c11.17,0,20.22-9.05,20.22-20.22V150.96z"/>
		<path class="st1" d="M661.43,197.57c-27.23,0-49.23-23.57-46.59-51.31c2.31-24.3,23.8-42.3,48.21-42.3l38.39,0
			c11.17,0,20.22-9.05,20.22-20.22v0c0-11.17-9.05-20.22-20.22-20.22l-37.7,0c-47.34,0-87.8,36.74-89.5,84.05
			c-1.78,49.56,38.02,90.45,87.19,90.45h40.01c11.17,0,20.22-9.05,20.22-20.22v0c0-11.17-9.05-20.22-20.22-20.22H661.43z"/>
		<linearGradient id="SVGID_2_" gradientUnits="userSpaceOnUse" x1="262.4438" y1="150.974" x2="570.9974" y2="150.974">
			<stop  offset="1.331947e-07" style="stop-color:#ECB511"/>
			<stop  offset="1" style="stop-color:#E23D2B"/>
		</linearGradient>
		<path class="st5" d="M483.73,63.71c-24.76,0.01-47.09,10.42-62.98,27.05c-14.96,15.65-24.22,36.8-24.25,60.11
			c0,0.03,0,0.06,0,0.09v0c0,19.91-12.4,38.1-31.31,44.31c-32.21,10.58-62.3-13.51-62.3-44.28v-40.01
			c0-11.17-9.05-20.22-20.22-20.22h0c-11.17,0-20.22,9.05-20.22,20.22v37.73c0,48.01,39.26,89.54,87.27,89.53
			c24.76,0,47.09-10.42,62.98-27.05c14.96-15.65,24.22-36.8,24.25-60.11c0-0.03,0-0.06,0-0.09v0c0-19.91,12.4-38.1,31.31-44.31
			c32.21-10.57,62.3,13.51,62.3,44.28v40.01c0,11.17,9.05,20.22,20.22,20.22l0,0c11.17,0,20.22-9.05,20.22-20.22v-37.73
			C571,105.23,531.74,63.7,483.73,63.71z"/>
		<g>
			<path class="st0" d="M718.5,134.86v32.91c0,2.13-1.72,3.85-3.85,3.85h-4.3c-1.28,0-2.48-0.64-3.2-1.7l-10.4-15.49
				c-2.69-4.04-3.72-5.77-5.65-9.62l-0.19,0.26c1.15,4.11,1.28,7.57,1.28,10.91v11.8c0,2.13-1.72,3.85-3.85,3.85h-2.57
				c-2.13,0-3.85-1.72-3.85-3.85v-32.91c0-2.13,1.72-3.85,3.85-3.85h4.3c1.28,0,2.48,0.64,3.2,1.7l10.4,15.49
				c2.7,4.04,3.72,5.78,5.65,9.62l0.19-0.26c-0.83-3.59-1.28-6.93-1.28-10.26v-12.44c0-2.13,1.72-3.85,3.85-3.85h2.57
				C716.77,131.01,718.5,132.73,718.5,134.86z"/>
			<path class="st0" d="M752.51,139.67h-3.85c-2.13,0-3.85,1.72-3.85,3.85v24.25c0,2.13-1.72,3.85-3.85,3.85h-2.57
				c-2.13,0-3.85-1.72-3.85-3.85v-24.25c0-2.13-1.72-3.85-3.85-3.85h-3.85c-2.13,0-3.85-1.72-3.85-3.85v-0.96
				c0-2.13,1.72-3.85,3.85-3.85h25.66c2.13,0,3.85,1.72,3.85,3.85v0.96C756.36,137.95,754.64,139.67,752.51,139.67z"/>
			<path class="st0" d="M660.75,139.35h12.19c2.13,0,3.85-1.72,3.85-3.85v-0.64c0-2.13-1.72-3.85-3.85-3.85h-21.91h-0.2h-0.35
				c-0.12,0-0.23,0.02-0.35,0.04c-10.89,0.37-19.61,9.29-19.61,20.27v0c0,10.98,8.72,19.9,19.61,20.27
				c0.12,0.01,0.23,0.04,0.35,0.04h0.35h0.2h21.91c2.13,0,3.85-1.72,3.85-3.85v-0.64c0-2.13-1.72-3.85-3.85-3.85h-12.19
				c-2.13,0-3.85-1.72-3.85-3.85v-0.19c0-2.13,1.72-3.85,3.85-3.85h9.56c2.13,0,3.85-1.72,3.85-3.85v-0.64
				c0-2.13-1.72-3.85-3.85-3.85h-9.56c-2.13,0-3.85-1.72-3.85-3.85S658.63,139.35,660.75,139.35z"/>
		</g>
	</g>
</g>
</svg>
