<?xml version="1.0" encoding="utf-8"?>
<!-- Generator: Adobe Illustrator 24.3.0, SVG Export Plug-In . SVG Version: 6.00 Build 0)  -->
<svg version="1.1" id="Layer_1" xmlns="http://www.w3.org/2000/svg" xmlns:xlink="http://www.w3.org/1999/xlink" x="0px" y="0px"
	 viewBox="70 70 700 200" style="enable-background:new 0 0 841.89 339.68;" xml:space="preserve">
<style type="text/css">
	.st0{fill:#E23D2B;}
	.st1{fill:#3779B2;}
	.st2{fill:#269245;}
	.st3{fill:#ECB511;}
	.st4{fill:url(#SVGID_1_);}
	.st5{fill:url(#SVGID_2_);}
	.st6{fill:url(#SVGID_3_);}
	.st7{fill:url(#SVGID_4_);}
	.st8{fill:url(#SVGID_5_);}
	.st9{fill:#FFFFFF;}
</style>
<g>
	<g>
		<path class="st2" d="M125.97,169.92c0-27.23,23.57-49.23,51.31-46.59c24.3,2.31,42.3,23.8,42.3,48.21v38.39
			c0,11.17,9.05,20.22,20.22,20.22h0c11.17,0,20.22-9.05,20.22-20.22v-37.7c0-47.34-36.74-87.8-84.05-89.5
			c-49.56-1.78-90.45,38.02-90.45,87.19v40.01c0,11.17,9.05,20.22,20.22,20.22h0c11.17,0,20.22-9.05,20.22-20.22V169.92z"/>
		<path class="st1" d="M661.43,216.53c-27.23,0-49.23-23.57-46.59-51.31c2.31-24.3,23.8-42.3,48.21-42.3l38.39,0
			c11.17,0,20.22-9.05,20.22-20.22v0c0-11.17-9.05-20.22-20.22-20.22l-37.7,0c-47.34,0-87.8,36.74-89.5,84.05
			c-1.78,49.56,38.02,90.45,87.19,90.45h40.01c11.17,0,20.22-9.05,20.22-20.22v0c0-11.17-9.05-20.22-20.22-20.22H661.43z"/>
		<linearGradient id="SVGID_1_" gradientUnits="userSpaceOnUse" x1="262.4438" y1="169.9388" x2="570.9974" y2="169.9388">
			<stop  offset="1.331947e-07" style="stop-color:#ECB511"/>
			<stop  offset="1" style="stop-color:#E23D2B"/>
		</linearGradient>
		<path class="st4" d="M483.73,82.67c-24.76,0.01-47.09,10.42-62.98,27.05c-14.96,15.65-24.22,36.8-24.25,60.11
			c0,0.03,0,0.06,0,0.09v0c0,19.91-12.4,38.1-31.31,44.31c-32.21,10.58-62.3-13.51-62.3-44.28v-40.01
			c0-11.17-9.05-20.22-20.22-20.22h0c-11.17,0-20.22,9.05-20.22,20.22v37.73c0,48.01,39.26,89.54,87.27,89.53
			c24.76,0,47.09-10.42,62.98-27.05c14.96-15.65,24.22-36.8,24.25-60.11c0-0.03,0-0.06,0-0.09v0c0-19.91,12.4-38.1,31.31-44.31
			c32.21-10.57,62.3,13.51,62.3,44.28v40.01c0,11.17,9.05,20.22,20.22,20.22l0,0c11.17,0,20.22-9.05,20.22-20.22V172.2
			C571,124.19,531.74,82.66,483.73,82.67z"/>
		<g>
			<path class="st0" d="M718.5,153.82v32.91c0,2.13-1.72,3.85-3.85,3.85h-4.3c-1.28,0-2.48-0.64-3.2-1.7l-10.4-15.49
				c-2.69-4.04-3.72-5.77-5.65-9.62l-0.19,0.26c1.15,4.11,1.28,7.57,1.28,10.91v11.8c0,2.13-1.72,3.85-3.85,3.85h-2.57
				c-2.13,0-3.85-1.72-3.85-3.85v-32.91c0-2.13,1.72-3.85,3.85-3.85h4.3c1.28,0,2.48,0.64,3.2,1.7l10.4,15.49
				c2.7,4.04,3.72,5.78,5.65,9.62l0.19-0.26c-0.83-3.59-1.28-6.93-1.28-10.26v-12.44c0-2.13,1.72-3.85,3.85-3.85h2.57
				C716.77,149.97,718.5,151.7,718.5,153.82z"/>
			<path class="st0" d="M752.51,158.63h-3.85c-2.13,0-3.85,1.72-3.85,3.85v24.25c0,2.13-1.72,3.85-3.85,3.85h-2.57
				c-2.13,0-3.85-1.72-3.85-3.85v-24.25c0-2.13-1.72-3.85-3.85-3.85h-3.85c-2.13,0-3.85-1.72-3.85-3.85v-0.96
				c0-2.13,1.72-3.85,3.85-3.85h25.66c2.13,0,3.85,1.72,3.85,3.85v0.96C756.36,156.91,754.64,158.63,752.51,158.63z"/>
			<path class="st0" d="M660.75,158.31h12.19c2.13,0,3.85-1.72,3.85-3.85v-0.64c0-2.13-1.72-3.85-3.85-3.85h-21.91h-0.2h-0.35
				c-0.12,0-0.23,0.02-0.35,0.04c-10.89,0.37-19.61,9.29-19.61,20.27v0c0,10.98,8.72,19.9,19.61,20.27
				c0.12,0.01,0.23,0.04,0.35,0.04h0.35h0.2h21.91c2.13,0,3.85-1.72,3.85-3.85v-0.64c0-2.13-1.72-3.85-3.85-3.85h-12.19
				c-2.13,0-3.85-1.72-3.85-3.85v-0.19c0-2.13,1.72-3.85,3.85-3.85h9.56c2.13,0,3.85-1.72,3.85-3.85v-0.64
				c0-2.13-1.72-3.85-3.85-3.85h-9.56c-2.13,0-3.85-1.72-3.85-3.85S658.63,158.31,660.75,158.31z"/>
		</g>
	</g>
</g>
</svg>
