<?xml version="1.0" encoding="utf-8"?>
<!-- Generator: Adobe Illustrator 24.3.0, SVG Export Plug-In . SVG Version: 6.00 Build 0)  -->
<svg version="1.1" id="Layer_1" xmlns="http://www.w3.org/2000/svg" xmlns:xlink="http://www.w3.org/1999/xlink" x="0px" y="0px"
	 viewBox="80 70 400 430" xml:space="preserve">
<style type="text/css">
	.st0{fill:#E23D2B;}
	.st1{fill:#3779B2;}
	.st2{fill:#269245;}
	.st3{fill:#ECB511;}
	.st4{fill:url(#SVGID_1_);}
	.st5{fill:url(#SVGID_2_);}
	.st6{fill:url(#SVGID_3_);}
	.st7{fill:url(#SVGID_4_);}
	.st8{fill:#FFFFFF;}
</style>
<path class="st0" d="M187.24,261.53c0-55.98,48.45-101.19,105.48-95.78c49.96,4.74,86.96,48.93,86.96,99.11l0,78.93
	c0,22.96,18.61,41.57,41.57,41.57h0c22.96,0,41.57-18.61,41.57-41.57l0-77.5c0-97.32-75.52-180.49-172.78-183.99
	c-101.88-3.66-185.94,78.16-185.94,179.24v82.25c0,22.96,18.61,41.57,41.57,41.57h0c22.96,0,41.57-18.61,41.57-41.57V261.53z"/>
<path class="st2" d="M317.29,406.93h-67.65c-4.37,0-7.91-3.54-7.91-7.91v-8.84c0-2.64,1.31-5.1,3.5-6.57l31.84-21.38
	c8.31-5.54,11.87-7.65,19.78-11.61l-0.53-0.4c-8.44,2.37-15.56,2.64-22.42,2.64h-24.26c-4.37,0-7.91-3.54-7.91-7.91v-5.28
	c0-4.37,3.54-7.91,7.91-7.91h67.65c4.37,0,7.91,3.54,7.91,7.91v8.84c0,2.64-1.31,5.1-3.5,6.57l-31.84,21.38
	c-8.31,5.54-11.87,7.65-19.78,11.61l0.53,0.4c7.38-1.71,14.24-2.64,21.1-2.64h25.58c4.37,0,7.91,3.54,7.91,7.91v5.28
	C325.2,403.39,321.66,406.93,317.29,406.93z"/>
<path class="st1" d="M307.4,476.85v-7.91c0-4.37-3.54-7.91-7.91-7.91h-49.85c-4.37,0-7.91-3.54-7.91-7.91v-5.28
	c0-4.37,3.54-7.91,7.91-7.91h49.85c4.37,0,7.91-3.54,7.91-7.91v-7.91c0-4.37,3.54-7.91,7.91-7.91h1.98c4.37,0,7.91,3.54,7.91,7.91
	v52.75c0,4.37-3.54,7.91-7.91,7.91h-1.98C310.94,484.76,307.4,481.22,307.4,476.85z"/>
<path class="st3" d="M308.06,288.22v25.05c0,4.37,3.54,7.91,7.91,7.91h1.32c4.37,0,7.91-3.54,7.91-7.91v-45.03v-0.41v-0.71
	c0-0.25-0.05-0.48-0.07-0.72c-0.76-22.38-19.1-40.31-41.67-40.31h0c-22.57,0-40.91,17.93-41.67,40.31
	c-0.02,0.24-0.07,0.47-0.07,0.72v0.71v0.41v45.03c0,4.37,3.54,7.91,7.91,7.91h1.32c4.37,0,7.91-3.54,7.91-7.91v-25.05
	c0-4.37,3.54-7.91,7.91-7.91h0.4c4.37,0,7.91,3.54,7.91,7.91v19.65c0,4.37,3.54,7.91,7.91,7.91h1.32c4.37,0,7.91-3.54,7.91-7.91
	v-19.65c0-4.37,3.54-7.91,7.91-7.91S308.06,283.85,308.06,288.22z"/>
</svg>
